<?xml version="1.0" encoding="utf-8"?>
<!-- Generator: Adobe Illustrator 27.6.1, SVG Export Plug-In . SVG Version: 6.00 Build 0)  -->
<svg version="1.1" id="Layer_1" xmlns="http://www.w3.org/2000/svg" xmlns:xlink="http://www.w3.org/1999/xlink" x="0px" y="0px"
	 viewBox="0 0 316.5 51.3" style="enable-background:new 0 0 316.5 51.3;" xml:space="preserve">
<g>
	<g>
		<path d="M16.4,46.8L16.4,46.8L16.4,46.8l-5.4,0c-0.7,0-1.2-0.5-1.2-1.2V27.3c0-0.5,0.4-0.9,0.9-0.9h5.7c6,0,10,3.7,10,10.2
			C26.4,42.9,22.4,46.8,16.4,46.8 M9.8,6c0-0.8,0.6-1.4,1.3-1.5c1-0.1,2.2-0.2,3.2-0.2c5.5,0,9,3.4,9,9.3c0,5.8-3.8,8.9-9.3,8.9
			h-3.3c-0.5,0-0.9-0.4-0.9-0.9V6z M26,23.8c-0.4-0.2-0.5-0.7-0.2-1c2.4-2.3,3.9-5.5,3.9-9.4c0,0,0.8-13.4-15.1-13.4
			C8.4,0,3.2,1.6,0,3.5v0.7c0,0,2.7,0.9,2.7,3.7v14.5v3.8v19.5c0,2.8-2,3.8-2,3.8v0.9h2h3.3h3.7h9.9c7.9,0,14.3-5.1,14.3-14
			C34,30.4,30.7,25.9,26,23.8"/>
		<path d="M93.4,24.6h-2.7c-0.5,0-0.9-0.4-0.9-0.9V8.3v-2c0-0.8,0.6-1.4,1.3-1.5c1-0.1,2.1-0.2,3-0.2c5.9,0,9.7,3.7,9.7,10
			C103.7,21.7,99.6,24.6,93.4,24.6 M113.8,45.9l-12.2-17.4c-0.2-0.3-0.1-0.8,0.3-0.9c5.6-2,9.3-7,9.3-13c0,0,0.9-14.6-16.5-14.6
			c-6,0-11.2,1.4-14.7,3.2v0.7c0,0,2.7,0.9,2.7,3.7v16.9v3.8v17.4c0,2.8-2,3.8-2,3.8v0.9h2h3.5h3.5h1.6v-0.9c0,0-1.6-0.9-1.6-3.8
			V29.3c0-0.5,0.4-0.9,0.9-0.9h2.1c0.5,0,1,0.2,1.3,0.7l14.8,21.1c0.2,0.2,0.5,0.4,0.8,0.4h2.7h4.8h0.8v-0.9
			C117.9,49.6,115.8,48.6,113.8,45.9"/>
		<path d="M138.3,46.8L138.3,46.8L138.3,46.8l-5.4,0c-0.7,0-1.2-0.5-1.2-1.2V27.3c0-0.5,0.4-0.9,0.9-0.9h5.7c6,0,10,3.7,10,10.2
			C148.3,42.9,144.3,46.8,138.3,46.8 M131.6,6c0-0.8,0.6-1.4,1.3-1.5c1-0.1,2.2-0.2,3.2-0.2c5.5,0,9,3.4,9,9.3
			c0,5.8-3.8,8.9-9.3,8.9h-3.3c-0.5,0-0.9-0.4-0.9-0.9V6z M147.9,23.8c-0.4-0.2-0.5-0.7-0.2-1c2.4-2.3,3.9-5.5,3.9-9.4
			c0,0,0.8-13.4-15.1-13.4c-6.1,0-11.4,1.6-14.6,3.5v0.7c0,0,2.7,0.9,2.7,3.7v14.5v3.8v19.5c0,2.8-2,3.8-2,3.8v0.9h2h3.3h3.7h9.9
			c7.9,0,14.3-5.1,14.3-14C155.9,30.4,152.6,25.9,147.9,23.8"/>
		<path d="M65.7,0.8v0.9c0,0,1.6,0.9,1.6,3.7v31c0,7.2-3.1,10.4-9.7,10.4c-6.6,0-9.6-3.4-9.6-11.3V5.4c0-2.8,1.6-3.8,1.6-3.8V0.8H48
			h-3.5h-3.9h-1.6v0.9c0,0,2,1,2,3.8v31.2c0,9.3,6.2,14.6,16.1,14.6c9.7,0,15-5.3,15-14.6V5.5c0-2.8,2-3.8,2-3.8V0.8h-2H65.7z"/>
		<path d="M212.4,24.6h-2.7c-0.5,0-0.9-0.4-0.9-0.9V8.3v-2c0-0.8,0.6-1.4,1.3-1.5c1-0.1,2.1-0.2,3-0.2c5.9,0,9.7,3.7,9.7,10
			C222.8,21.7,218.7,24.6,212.4,24.6 M232.9,45.9l-12.2-17.4c-0.2-0.3-0.1-0.8,0.3-0.9c5.6-2,9.3-7,9.3-13c0,0,0.9-14.6-16.5-14.6
			c-6,0-11.2,1.4-14.7,3.2v0.7c0,0,2.7,0.9,2.7,3.7v16.9v3.8v17.4c0,2.8-2,3.8-2,3.8v0.9h2h3.5h3.5h1.6v-0.9c0,0-1.6-0.9-1.6-3.8
			V29.3c0-0.5,0.4-0.9,0.9-0.9h2.1c0.5,0,1,0.2,1.3,0.7l14.8,21.1c0.2,0.2,0.5,0.4,0.8,0.4h2.8h4.8h0.8v-0.9
			C236.9,49.6,234.8,48.6,232.9,45.9"/>
		<path d="M254.5,24.6h-2.7c-0.5,0-0.9-0.4-0.9-0.9V8.3v-2c0-0.8,0.6-1.4,1.3-1.5c1-0.1,2.1-0.2,3-0.2c5.9,0,9.7,3.7,9.7,10
			C264.8,21.7,260.7,24.6,254.5,24.6 M274.9,45.9l-12.2-17.4c-0.2-0.3-0.1-0.8,0.3-0.9c5.6-2,9.3-7,9.3-13c0,0,0.9-14.6-16.5-14.6
			c-6,0-11.2,1.4-14.7,3.2v0.7c0,0,2.7,0.9,2.7,3.7v16.9v3.8v17.4c0,2.8-2,3.8-2,3.8v0.9h2h3.5h3.5h1.6v-0.9c0,0-1.6-0.9-1.6-3.8
			V29.3c0-0.5,0.4-0.9,0.9-0.9h2.1c0.5,0,1,0.2,1.3,0.7l14.8,21.1c0.2,0.2,0.5,0.4,0.8,0.4h2.8h4.8h0.8v-0.9
			C278.9,49.6,276.8,48.6,274.9,45.9"/>
		<path d="M307,0.7v0.9c0,0,2,0.7,0.3,3.7l-9.4,17c-0.2,0.4-0.8,0.4-1.1,0l-9.4-17c-1.7-3,0.3-3.7,0.3-3.7V0.7h-2.8H283h-2.1h-4.1
			h-1.5v0.9c0,0,2.5,0.9,4.1,3.8l12.7,22.9c0.2,0.4,0.3,0.9,0.3,1.3v16.2c0,2.8-2,3.8-2,3.8v0.9h2h6.9h2v-0.9c0,0-2-1-2-3.8V29.6
			c0-0.5,0.1-0.9,0.3-1.3l12.7-22.9c1.6-2.9,4.1-3.8,4.1-3.8V0.7H307z"/>
		<path d="M188.2,46.8h-15c-0.7,0-1.2-0.5-1.2-1.2V27.4c0-0.5,0.4-0.9,0.9-0.9h8.2c2.8,0,3.8,1.6,3.8,1.6h0.9v-7h-0.9
			c0,0-0.9,1.6-3.8,1.6h-8.2c-0.5,0-0.9-0.4-0.9-0.9v-16c0-0.7,0.5-1.2,1.2-1.2h13c2.8,0,3.8,2,3.8,2h0.9v-2V0.8H172h-3.5H165h-2
			v0.9c0,0,2,1,2,3.8v17.2v3.8v19.4c0,2.8-2,3.8-2,3.8v0.9h8.9h21v-3.8v-2H192C192,44.8,191.1,46.8,188.2,46.8"/>
	</g>
</g>
</svg>
