<?xml version="1.0" encoding="utf-8"?>
<!-- Generator: Adobe Illustrator 25.2.1, SVG Export Plug-In . SVG Version: 6.00 Build 0)  -->
<svg version="1.1" id="Layer_1" xmlns="http://www.w3.org/2000/svg" xmlns:xlink="http://www.w3.org/1999/xlink" x="0px" y="0px"
	 viewBox="0 0 175.7 104.3" style="enable-background:new 0 0 175.7 104.3;" xml:space="preserve">
<g>
	<g>
		<path d="M48.8,92.7c10.8,0,17-15.8,21.3-33.5l5.4,1.9c-6.6,10.8-6,20.8,1.2,20.8S90,72,90,72s4,2.1,8.8,2.1s12-3.7,12-11.3
			c0.1-7.6-4.3-12.9-8-16c-3.7-3.2-3.8-5.9-3.8-5.9c0-3.9,4-2.9,4.5-2.3s4.2,4.8,4.2,4.8l3.5-7.1c0,0-1.5-3.2-8.4-3.2
			c-7,0-12.4,5.5-12.4,11.9s6.6,13.2,8,14.3c1.3,1.1,4.8,4.2,4.8,7.2c0,3.1-3.3,3.4-3.3,3.4c-3.9,0-8.7-8.3-8.7-8.3
			s-3.1,7.2-6.6,7.2s-3.9-3.7-3.9-3.7c0-6,4.5-13.3,4.5-13.3l-0.7-1.1c-1.6,0.9-4.8,1-4.8,1c-6.5,0-8.8-7.2-8.8-7.2l-1,0.1
			c-0.1,0.8-3,13.4-3,13.4c-0.8,3.3-6.6,27.5-12.3,27.5c-6.1,0-5.3-6.5-5.3-6.5L62,69.5c0,0,1.5-12.2-6.5-12.2
			c-7.6,0-17.6,8.1-17.6,23.3C37.9,80.6,37.8,92.7,48.8,92.7z M50.7,62.2c2.4-0.6,2.4,3.7,2.4,3.7l0.4,5.6l-5,3.3
			C47.6,72.4,47.4,63,50.7,62.2z"/>
		<path d="M13.8,79c0,0,2.9-0.2,1.6-2.1c-1.3-1.8-5.3-8.4-5.3-14.8s6.1-25.5,22.2-25.5c0,0,14.2-0.3,9.5,19.3
			c0,0,12.1-1.1,12.1-11.6c0.1-10.6-18.8-11-18.8-11C16.4,33.3-0.1,50.5,0,65C0.1,78.8,13.8,79,13.8,79z"/>
		<path d="M20.9,69.4c0,0-0.5,12.1,1.3,22c0,0,0,8.2-4.8,8.2s-7.3-7-10.3-13.2L1,94.8c0,0,3.9,8.9,13.5,8.9c9.5,0,21-8.6,21-35.6
			c0,0-0.7-8.1-0.9-12.7c0-3,1.7-11.7,2.6-13.2C37.2,42.2,21.4,46.9,20.9,69.4z"/>
		<path d="M123.6,64.1c8.2,0,16.9-11.6,16.9-23.9c0-12.2-10-13.2-11.4-13.2c-1.3,0-15.1,4-15.1,23.7C114,50.7,113.6,64.1,123.6,64.1
			z M121.9,38.6c0.6-9.1,4.7-6.2,6.8-1.1c1.6,3.9,3.8,18.8,0.1,18.8S121.6,43.5,121.9,38.6z"/>
		<path d="M175.8,47.7c0-1.5-1.3-2.6-4.4-2.6c-3.1,0-7.2,1.1-10.8,3.4c-3.5,2.3-6.7-0.4-6.7-4.9s0.1-9.4,2.8-12.7
			c2.7-3.3,9.3-8.2,9.3-19.8C165.9-0.5,157.9,0,157.9,0c-8.6,0-13.3,13.7-13.3,23.3c0,9.5,0,29.4,0,29.4s0.5,3.8,4.3,3.8
			s10.2-3.5,13.6-5.6c3.4-2.1,7-3.2,8.6-3.2s1.7,1.1,1.7,1.7c0,0.6-0.7,1.5-4.8,2.9c-4,1.5-124.7,50.5-126.9,52H65
			c0,0,61.2-29.7,75.9-36.5c14.7-6.7,27.2-12.7,31.1-14.7S175.8,49.2,175.8,47.7z M154,11.7c0-4,0.8-8.3,2.9-8.3
			c1.7,0,2.7,1.7,2.7,8.6c0,6.8-1.8,10.1-3.4,13.3c-1.8,3.4-2.2,0.2-2.2,0.2S154,15.7,154,11.7z"/>
	</g>
	<g>
		<path d="M172.4,1c-1.8,0-3.4,1.4-3.4,3.3c0,2,1.6,3.4,3.4,3.3c1.8,0,3.4-1.4,3.4-3.3S174.2,1,172.4,1z M172.4,7.1
			c-1.5,0-2.7-1.2-2.7-2.8s1.2-2.8,2.7-2.8s2.7,1.2,2.7,2.8S173.9,7.1,172.4,7.1z"/>
		<path d="M174,3.5c0-0.8-0.5-1.1-1.4-1.1h-1.5v3.9h0.6V4.6h0.7l1,1.7h0.7L173,4.6C173.6,4.5,174,4.2,174,3.5z M171.7,4.1V2.9h0.8
			c0.4,0,0.8,0.1,0.8,0.6c0,0.6-0.4,0.6-0.9,0.6H171.7z"/>
	</g>
</g>
</svg>
