<?xml version="1.0" encoding="utf-8"?>
<!-- Generator: Adobe Illustrator 22.1.0, SVG Export Plug-In . SVG Version: 6.00 Build 0)  -->
<svg version="1.1" id="Livello_1" xmlns="http://www.w3.org/2000/svg" xmlns:xlink="http://www.w3.org/1999/xlink" x="0px" y="0px"
	 viewBox="0 0 116.4 79" style="enable-background:new 0 0 116.4 79;" xml:space="preserve">
<style type="text/css">
	.st0{fill:#ED1C24;}
	.st1{fill:#FFFFFF;}
</style>
<g>
	<polygon class="st0" points="0,0 116.4,0 116.4,68.4 0,68.4 0,0 	"/>
	<path class="st1" d="M63.8,33.5c1.4,0,2.3,0.8,2.3,1.8c0,1.3-1.4,3.3-4,3.3c-2,0-2.2-1.3-2.2-1.8C59.9,35.8,61.3,33.5,63.8,33.5
		L63.8,33.5z"/>
	<path class="st1" d="M69,39.6c0-0.6,0.1-2.4,0.1-3.4L69,19.4c0-4.3,1.3-7.2,2.6-9.1C72.8,8.4,75.8,5,79.9,5c3.2,0,4.8,2.6,4.8,5.4
		c0,3.1-1.1,5.6-4.7,9c-3.7,3.4-4.5,3.5-4.5,4.5c0,0.9,1.2,1.5,1.8,2c0.6,0.4,3.1,2.1,4.3,3.2c1.2,1.1,1.6,1.8,1.6,2.8
		c0,1.8-0.8,2.8-1.5,3.9c-1.2,1.8-5.6,6.2-7.8,10.5c-0.5,0.8-0.9,0.8-1.3,0.4c-0.6-0.8-1.1-1.5-1.3-2.1c-0.2-0.6-0.5-1.5,0.1-2.5
		c0.6-0.9,4.8-6.1,6.2-8c1.3-1.6,1.3-4,0.3-4.9c-1-0.9-3.1-2.9-3.8-3.6c-0.6-0.7-1-2.1,0-3.2c3-3.5,6.3-7.4,6.3-11.4
		c0-2.2-1.4-3.7-2.6-3.7c-2.8,0-5.2,5.2-5.3,9.8L73,35.5c0,1.4,0,2-1,3.2c-1,1.1-2,1.5-2.5,1.5C69.2,40.2,69,40,69,39.6L69,39.6z"/>
	<path class="st1" d="M107.8,21.1c0,0.6,0.5,1.1,1.1,1.1s1.1-0.5,1.1-1.1c0-0.6-0.5-1.1-1.1-1.1S107.8,20.5,107.8,21.1L107.8,21.1z
		 M108.1,21.1c0-0.5,0.4-0.9,0.8-0.9c0.4,0,0.8,0.4,0.8,0.9c0,0.5-0.4,0.9-0.8,0.9C108.5,22,108.1,21.7,108.1,21.1L108.1,21.1z
		 M108.5,21.8h0.3v-0.5h0.1l0.3,0.5h0.3l-0.3-0.5c0.2,0,0.3-0.1,0.3-0.3c0-0.3-0.2-0.4-0.5-0.4h-0.5V21.8L108.5,21.8z M108.7,21
		v-0.3h0.2c0.1,0,0.2,0,0.2,0.1c0,0.1-0.1,0.2-0.2,0.2H108.7L108.7,21z"/>
	<path class="st1" d="M35,47.1c0-2.9,2.7-7.1,5.1-7.1c0.4,0,0.7,0.1,1.2,0.1c0.6,0,0.9-1.3,1.9-1.3c0.8,0,1.6,0.3,1.6,2.3
		c0,1,0.8,2.6,1.4,2.6c1.4,0,2.3-3.9,2.9-5.8c0.2-0.5,0.7-0.9,1.1-0.9c0.7,0,1.1,0.6,1.2,1.2c0.1,0.6,0.2,3.5,0.9,3.5
		c0.9,0,1.7-2.6,2.4-4c0.7-1.4,1.5-2.7,2-2.7c0.6,0,0.5,0.5,0.5,1c-0.1,4.1-0.3,22.3-0.3,22.6c0,0.3-0.1,0.6-0.4,0.6
		c-0.3,0-1.9,0-2.2,0c-0.3,0-0.5-0.3-0.5-0.6L54,43.7c0-0.8-0.5-0.7-0.8-0.2c-1,1.5-1.7,2.5-2.8,2.5c-1.8,0-1-2.3-1.8-2.3
		c-0.8,0-2,3.8-4.1,3.8c-2.1,0-1.6-2.4-2.3-2.4c-0.8,0-2.5,4.2-5.3,4.2C36.1,49.4,35,49.1,35,47.1L35,47.1z"/>
	<path class="st0" d="M38.1,46.2c0-1.1,2.1-4.5,3-4.5c0.3,0,0.6,0.3,0.6,0.7c0,1-2.2,4.4-3,4.4C38.4,46.9,38.1,46.7,38.1,46.2
		L38.1,46.2z"/>
	<path class="st1" d="M84.4,33.8c0-2.9,2.9-8,6-8c0.4,0,1-0.1,1.2-0.4c0.3-0.3,0.6-0.7,1.1-0.7c1,0,1.2,0.9,1.3,1.7
		c0.2,1.2,0.3,3.2,1.2,3.2c0.7,0,0.9-0.6,1.3-1.5c0.3-0.8,1.6-3.6,2.1-4.5c0.5-0.9,1-1.1,1.4-1.1c0.4,0,1,0.4,1,1
		c0,0.6,0.1,1.8,0.1,1.8c0,0.7,0.5,0.8,1-0.3c0.5-1.3,1.5-3.9,2.9-3.9c1,0,1.2,0.9,1.6,2.2c0.3,1.3,0.9,3.8,2.3,3.8
		c0.4,0,1.2-0.7,1.5-0.4c0.3,0.3-0.5,1.4-1.1,2.1c-0.6,0.7-1.3,1.4-2.3,1.4c-1,0-1.7-0.4-2.2-1.6c-0.4-1-0.6-2.7-1.2-2.7
		c-0.5,0-0.9,0.8-1.5,2.2c-0.6,1.4-1.9,3.9-3.2,3.9c-0.9,0-1-0.7-1-1.8c0-0.4-0.3-0.9-0.8,0c-0.8,1.5-1.6,3.4-3.2,3.4
		c-1.4,0-1.9-1.1-2.1-2c-0.1-0.4-0.4-0.7-0.7-0.2c-0.3,0.5-2,2.7-2.8,3.4c-0.8,0.7-1.4,1.2-2.4,1.2C84.8,36.1,84.4,35.3,84.4,33.8
		L84.4,33.8z"/>
	<path class="st0" d="M87.7,31.8c0-1,2-3.9,3-3.9c0.3,0,0.4,0.2,0.4,0.5c0,0.7-1.9,4.1-2.9,4.1C87.9,32.5,87.7,32.1,87.7,31.8
		L87.7,31.8z"/>
	<path class="st1" d="M25.3,50.6c0-0.6-0.5-0.7-0.5-0.7l-4.9-2.3c-0.8-0.4-0.7-0.8,0-1.2l4.8-3c0.6-0.3,0.6-0.8,0.6-1.4l-0.1-15.6
		c0-0.5,0.1-0.8,0.5-1.1l1.9-1.2c0.8-0.4,1.5-0.4,1.5,0.6v14.2c0,0.7,0.3,1.2,1.2,0.5c4.5-3.6,9-7.4,9-13.1c0-3.3-2.1-5.4-5-5.4
		c-7.1,0-19,8.1-23.4,11.1c-1,0.7-3.4,2.7-3.8,3.1c-0.4,0.4-0.9,0.6-0.9-0.3c0-0.9,0.1-2.1,0.1-3.1c0-1,0.4-3,1.8-3.9
		c9.8-6.2,19.1-10.1,25.5-10.1c6.4,0,8.6,4.3,8.6,7.4c0,5.8-4.3,11-12.5,17.3c-0.4,0.3-0.4,0.9-0.4,1.1v2.9c0,0.7,0.3,1,0.9,1.3
		l12.9,6.1c1.3,0.6,1.2,1.4,0.9,1.9c-0.2,0.4-0.4,1.1-0.7,1.3c-0.7,0.6-1.2,0.8-2.3,0.3l-10.7-5.1c-0.6-0.4-1.1-0.1-1.1,0.4l0.1,2.7
		c0,0.7-0.2,1.4-0.9,1.8c-0.7,0.4-1.5,1-2,1.2c-0.4,0.2-0.9,0.3-0.9-0.4c0-0.8-0.1-7.1-0.1-7.1C25.3,51,25.3,51.1,25.3,50.6
		L25.3,50.6z"/>
	<path d="M11.4,75.7v1.6c0,0,0,0.1,0,0.2c-0.1,0.8-0.7,1.3-1.5,1.3H7.7c0,0-0.1,0-0.3,0c-0.8-0.1-1.3-0.7-1.3-1.5v-2.1
		c0,0,0-0.1,0-0.3c0.1-0.8,0.7-1.3,1.5-1.3h2.1c0,0,0.1,0,0.3,0c0.8,0.1,1.3,0.7,1.3,1.6h-1c0-0.4-0.2-0.5-0.5-0.5H7.7
		c-0.4,0-0.5,0.2-0.5,0.5v2.1c0,0.3,0.2,0.5,0.5,0.5h2.1c0.4,0,0.5-0.2,0.5-0.5v-0.5H8.8v-1H11.4L11.4,75.7z"/>
	<polygon points="17.1,75.7 17.1,76.7 14.5,76.7 14.5,77.2 14.5,77.8 18.1,77.8 18.1,78.8 13.4,78.8 13.4,77.2 13.4,73.6 15,73.6 
		18.1,73.6 18.1,74.6 15,74.6 14.5,74.6 14.5,75.7 17.1,75.7 	"/>
	<polygon points="20,73.6 21.9,73.6 24,77.8 24.2,77.8 24.2,74.1 24.2,73.6 25.2,73.6 25.2,74.1 25.2,78.8 23.3,78.8 21.2,74.6 
		21,74.6 21,78.3 21,78.8 20,78.8 20,78.3 20,73.6 	"/>
	<path d="M32.5,77.2c0,0,0,0.1,0,0.2c-0.1,0.8-0.7,1.3-1.5,1.3h-2.1c0,0-0.1,0-0.3,0c-0.8-0.1-1.3-0.7-1.3-1.5v-3.1v-0.5h1v0.5v3.1
		c0,0.3,0.2,0.5,0.5,0.5H31c0.3,0,0.5-0.2,0.5-0.5v-3.1v-0.5h1v0.5V77.2L32.5,77.2z"/>
	<polygon points="34.5,74.1 34.5,73.6 35.5,73.6 35.5,74.1 35.5,78.3 35.5,78.8 34.5,78.8 34.5,78.3 34.5,74.1 	"/>
	<polygon points="37.4,73.6 39.3,73.6 41.4,77.8 41.6,77.8 41.6,74.1 41.6,73.6 42.6,73.6 42.6,74.1 42.6,78.8 40.7,78.8 38.6,74.6 
		38.4,74.6 38.4,78.3 38.4,78.8 37.4,78.8 37.4,78.3 37.4,73.6 	"/>
	<polygon points="48.3,75.7 48.3,76.7 45.7,76.7 45.7,77.2 45.7,77.8 49.4,77.8 49.4,78.8 44.7,78.8 44.7,77.2 44.7,73.6 46.2,73.6 
		49.4,73.6 49.4,74.6 46.2,74.6 45.7,74.6 45.7,75.7 48.3,75.7 	"/>
	<path d="M56.4,76.7h-0.5c-1,0-1.3-1-1.3-1.6c0-0.6,0.3-1.6,1.3-1.6h0.5h0.5h1.6c1,0,1.3,1,1.3,1.6l-1.1,0c0-0.4-0.2-0.5-0.3-0.5
		h-1.6h-0.5h-0.5c-0.1,0-0.3,0.1-0.3,0.5c0,0.4,0.2,0.5,0.3,0.5h0.5h0.5h1.6c1,0,1.3,1,1.3,1.6c0,0.6-0.3,1.6-1.3,1.6h-1.6h-0.5
		h-0.5c-1,0-1.3-1-1.3-1.6l1.1,0c0,0.4,0.2,0.5,0.3,0.5h0.5h0.5h1.6c0.1,0,0.3-0.1,0.3-0.5c0-0.5-0.2-0.5-0.3-0.5h-1.6H56.4
		L56.4,76.7z"/>
	<polygon points="61.6,74.1 61.6,73.6 62.7,73.6 62.7,74.1 62.7,78.3 62.7,78.8 61.6,78.8 61.6,78.3 61.6,74.1 	"/>
	<polygon points="64.6,73.6 66.4,73.6 68.5,77.8 68.7,77.8 68.7,74.1 68.7,73.6 69.8,73.6 69.8,74.1 69.8,78.8 67.9,78.8 65.8,74.6 
		65.6,74.6 65.6,78.3 65.6,78.8 64.6,78.8 64.6,78.3 64.6,73.6 	"/>
	<path d="M77,77.5c-0.1,0.8-0.7,1.3-1.5,1.3h-2.1c0,0-0.1,0-0.3,0c-0.8-0.1-1.3-0.7-1.3-1.5v-2.1c0,0,0-0.1,0-0.3
		c0.1-0.8,0.7-1.3,1.5-1.3h2.1c0,0,0.1,0,0.3,0c0.8,0.1,1.3,0.7,1.3,1.6h-1c0-0.4-0.2-0.5-0.5-0.5h-2.1c-0.3,0-0.5,0.2-0.5,0.5v2.1
		c0,0.3,0.2,0.5,0.5,0.5h2.1c0.3,0,0.5-0.2,0.5-0.5h1C77.1,77.2,77.1,77.3,77,77.5L77,77.5z"/>
	<polygon points="82.5,75.7 82.5,76.7 79.9,76.7 79.9,77.2 79.9,77.8 83.5,77.8 83.5,78.8 78.8,78.8 78.8,77.2 78.8,73.6 80.4,73.6 
		83.5,73.6 83.5,74.6 80.4,74.6 79.9,74.6 79.9,75.7 82.5,75.7 	"/>
	<path d="M89,75.6l-0.5,0.2l-0.5-0.9c0.5-0.3,1.2-0.6,1.2-1.3h1.1v4.7v0.5h-1.1v-0.5v-2.8C89.2,75.5,89.1,75.6,89,75.6L89,75.6z"/>
	<path d="M92.5,75.2c0-0.6,0.3-1.6,1.3-1.6h1.1h0.3h1c1,0,1.3,1,1.3,1.6v2.1c0,0,0,0.1,0,0.2c-0.1,0.8-0.7,1.3-1.5,1.3h-1.8
		c-0.9,0-1.6-0.7-1.6-1.6h1c0,0.1,0,0.5,0.5,0.5h1.8c0.4,0,0.5-0.2,0.5-0.5v-0.5c-0.1,0-0.2,0-0.3,0h-1.3h-1.1
		C92.9,76.7,92.5,75.7,92.5,75.2L92.5,75.2z M94.9,75.7h1.3c0.1,0,0.3-0.1,0.3-0.5c0-0.4-0.2-0.5-0.3-0.5h-1h-0.3h-1.1
		c-0.1,0-0.3,0.1-0.3,0.5c0,0.4,0.2,0.5,0.3,0.5H94.9L94.9,75.7z"/>
	<path d="M104.3,77.2c0,0.6-0.3,1.6-1.3,1.6h-2.1c-0.9,0-1.6-0.7-1.6-1.6h1.1c0,0,0,0,0,0.1c0.1,0.3,0.2,0.4,0.5,0.4h2.1
		c0.1,0,0.3-0.1,0.3-0.5c0-0.5-0.2-0.5-0.3-0.5h-2.1v-1h2.1c0.1,0,0.3-0.1,0.3-0.5c0-0.4-0.2-0.5-0.3-0.5h-2.1
		c-0.4,0-0.5,0.2-0.5,0.5h-1.1c0,0,0-0.1,0-0.3c0.1-0.8,0.7-1.3,1.6-1.3h2.1c1,0,1.3,1,1.3,1.6c0,0.3-0.1,0.7-0.3,1
		C104.2,76.5,104.3,76.9,104.3,77.2L104.3,77.2z"/>
	<path d="M107.7,79l-0.9-0.5L107,78c0,0,0.5-1.1,1.2-2.1c0.2-0.3,0.5-0.8,0.9-1.3h-2.7h-0.5v-1h4.7v1C109.7,75,108.1,78.1,107.7,79
		L107.7,79z"/>
</g>
</svg>
